#!OML:ASF Y:\EmotionMaleHayes\Project 1\Capture day 1\Session 1\Male1.ASF
:FULLY-SPECIFIED
:DEGREES
372
root 35.4062 15.3274 0.00643726 670.559 66.8137 672.636
lowerback 7.26175 5.2936 14.0151
upperback 1.72162 8.23957 2.39718
thorax -0.645354 4.18197 -5.75152
lowerneck -20.8488 1.99682 7.71212
upperneck 26.7567 1.8495 -4.4641
head 12.4528 1.13796 -2.67594
rclavicle -9.64106e-015 -7.15625e-015
rhumerus -24.8519 41.0206 -80.5092
rradius 106.248
rwrist -14.6118
rhand -14.0563 -22.6635
rfingers 7.12502
rthumb 12.0748 -52.2951
lclavicle -9.64106e-015 -7.15625e-015
lhumerus -76.8269 -10.5213 83.5657
lradius 28.0769
lwrist -7.21494
lhand -3.3129 -17.1123
lfingers 7.12502
lthumb 22.4136 11.6073
rfemur 28.0877 4.45082 33.3381
rtibia 18.967
rfoot -32.2743 7.29588
rtoes -25.855
lfemur -26.8784 10.6448 11.8905
ltibia 12.849
lfoot -10.3611 17.678
ltoes 12.3657
373
root 35.6651 15.2585 -0.0200419 671.66 67.873 673.664
lowerback 7.12335 5.16673 12.8164
upperback 1.61825 7.94637 2.04352
thorax -0.846651 4.01288 -5.47382
lowerneck -20.2618 2.07154 7.43756
upperneck 26.0589 2.00077 -4.23702
head 12.0646 1.19594 -2.50465
rclavicle 6.56983e-014 -2.62396e-014
rhumerus -25.9327 40.0463 -81.2965
rradius 105.993
rwrist -14.529
rhand -14.3423 -22.6286
rfingers 7.12502
rthumb 11.799 -52.2762
lclavicle 6.56983e-014 -2.62396e-014
lhumerus -75.9972 -9.97232 82.9244
lradius 26.7705
lwrist -8.80492
lhand -3.50257 -17.875
lfingers 7.12502
lthumb 22.2316 10.8664
rfemur 28.2277 5.00294 32.4515
rtibia 20.3633
rfoot -31.6976 6.35096
rtoes -27.0392
lfemur -27.9285 10.9835 10.3822
ltibia 13.9503
lfoot -7.92892 17.1308
ltoes 22.6058
374
root 35.9072 15.2021 -0.0480178 673.352 69.1093 675.331
lowerback 7.17456 5.06667 11.3779
upperback 1.57904 7.6935 1.60824
thorax -1.09052 3.86678 -5.16294
lowerneck -19.9806 2.17828 7.65546
upperneck 25.592 2.29071 -4.94736
head 11.857 1.24581 -2.75638
rclavicle 3.38928e-014 -1.59028e-015
rhumerus -26.9376 38.7184 -82.1532
rradius 105.497
rwrist -14.1281
rhand -14.2304 -22.8094
rfingers 7.12502
rthumb 11.9069 -52.4508
lclavicle 3.38928e-014 -1.59028e-015
lhumerus -74.8186 -9.58882 82.4463
lradius 25.4232
lwrist -10.4769
lhand -3.65094 -18.3599
lfingers 7.12502
lthumb 22.0891 10.3984
rfemur 28.2623 5.75139 31.4022
rtibia 21.833
rfoot -30.7094 5.90101
rtoes -25.9483
lfemur -29.4752 11.866 8.45786
ltibia 16.0368
lfoot -6.32545 15.4219
ltoes 29.9538
375
root 36.1341 15.1604 -0.0766585 676.392 70.8186 678.284
lowerback 7.18524 4.99858 9.33951
upperback 1.62571 7.42078 1.00969
thorax -1.27112 3.72058 -4.6768
lowerneck -20.4137 2.12889 6.74238
upperneck 25.5422 2.2391 -4.12922
head 11.8984 1.22896 -2.30081
rclavicle 3.33958e-014 -1.27222e-014
rhumerus -27.859 37.0141 -83.0633
rradius 104.74
rwrist -13.3642
rhand -13.9117 -22.7357
rfingers 7.12502
rthumb 12.2142 -52.3591
lclavicle 3.33958e-014 -1.27222e-014
lhumerus -73.111 -9.24193 81.9354
lradius 23.9507
lwrist -12.3979
lhand -3.78538 -18.7337
lfingers 7.12502
lthumb 21.96 10.0399
rfemur 28.0165 6.51402 29.6485
rtibia 23.4873
rfoot -29.5135 5.68408
rtoes -24.2055
lfemur -32.1005 13.0005 5.17294
ltibia 20.9995
lfoot -4.3014 12.2797
ltoes 21.8312
376
root 36.3517 15.1343 -0.101974 680.236 72.6728 682.084
lowerback 7.15005 4.92564 7.11686
upperback 1.82633 7.12349 0.34894
thorax -1.27254 3.57813 -4.125
lowerneck -20.5031 2.25017 6.10029
upperneck 24.9279 2.43051 -3.61127
head 11.6756 1.3023 -1.96034
rclavicle -3.75703e-014 -8.74653e-015
rhumerus -28.8328 34.9425 -84.0284
rradius 103.88
rwrist -12.3931
rhand -13.4578 -22.7691
rfingers 7.12502
rthumb 12.6519 -52.3659
lclavicle -3.75703e-014 -8.74653e-015
lhumerus -70.7575 -8.7082 81.0178
lradius 22.3751
lwrist -14.7237
lhand -3.52483 -18.9849
lfingers 7.12502
lthumb 22.2102 9.75903
rfemur 27.5673 7.19289 27.6802
rtibia 25.4388
rfoot -28.1853 5.2387
rtoes -23.5426
lfemur -34.6648 12.6124 2.02133
ltibia 25.6826
lfoot -3.8331 10.9266
ltoes 22.4494
377
root 36.5564 15.12 -0.123731 682.693 73.9498 684.708
lowerback 7.54921 4.86568 5.68911
upperback 2.06227 6.9495 -0.107086
thorax -1.3834 3.49499 -3.83464
lowerneck -21.0341 2.20353 5.82119
upperneck 24.7628 2.45725 -3.79715
head 11.7154 1.24969 -1.97657
rclavicle 1.77912e-014 1.82882e-014
rhumerus -30.0877 32.5185 -85.0364
rradius 102.941
rwrist -11.4219
rhand -13.036 -23.043
rfingers 7.12502
rthumb 13.0585 -52.6143
lclavicle 1.77912e-014 1.82882e-014
lhumerus -68.2091 -8.16492 79.936
lradius 20.9235
lwrist -17.3546
lhand -3.08005 -19.3172
lfingers 7.12502
lthumb 22.6371 9.37532
rfemur 27.1133 7.86182 26.6828
rtibia 27.7246
rfoot -26.5815 4.47294
rtoes -23.6304
lfemur -36.458 11.6944 0.119073
ltibia 29.5438
lfoot -3.90375 11.3405
ltoes 21.5441
378
root 36.9532 15.0567 -0.218653 691.7 76.6851 694.042
lowerback 5.60239 4.74968 3.49604
upperback 2.80802 6.54865 -1.30197
thorax 0.315524 3.35615 -3.59833
lowerneck -21.3318 1.9347 4.80922
upperneck 24.4027 2.19051 -3.14424
head 11.5986 1.1064 -1.60293
rclavicle -1.03368e-014 1.03368e-014
rhumerus -31.6926 29.8893 -86.0704
rradius 101.875
rwrist -10.7372
rhand -13.131 -23.0609
rfingers 7.12502
rthumb 12.967 -52.6379
lclavicle -1.03368e-014 1.03368e-014
lhumerus -65.8138 -7.70601 78.9441
lradius 19.8027
lwrist -20.3298
lhand -2.40633 -19.5391
lfingers 7.12502
lthumb 23.2836 9.07306
rfemur 28.3954 6.21443 20.6277
rtibia 27.9354
rfoot -24.0484 7.50382
rtoes -21.4377
lfemur -35.8302 10.5507 -5.71316
ltibia 29.8484
lfoot -2.80649 11.5314
ltoes 18.8166
379
root 37.0331 15.1031 -0.196968 685.341 76.2656 687.8
lowerback 7.87161 4.66418 4.25126
upperback 2.53078 6.57372 -0.842638
thorax -1.19138 3.32896 -3.78404
lowerneck -21.0935 1.9278 4.4478
upperneck 23.7941 2.27063 -3.08537
head 11.3192 1.1095 -1.50425
rclavicle 4.70126e-014 -1.35174e-014
rhumerus -33.4517 27.2592 -87.1219
rradius 100.595
rwrist -10.7361
rhand -14.087 -22.6517
rfingers 7.12502
rthumb 12.0452 -52.2851
lclavicle 4.70126e-014 -1.35174e-014
lhumerus -63.4718 -7.10281 77.7627
lradius 19.0094
lwrist -23.6251
lhand -2.94423 -20.4382
lfingers 7.12502
lthumb 22.7675 8.2383
rfemur 26.5566 7.93852 24.5815
rtibia 31.9282
rfoot -21.889 4.87513
rtoes -19.1646
lfemur -36.8912 11.9485 -3.71987
ltibia 32.6622
lfoot -1.83527 12.5374
ltoes 19.9956
380
root 37.2507 15.118 -0.2236 686.151 76.956 689.069
lowerback 8.52789 4.64367 3.81279
upperback 2.66793 6.53696 -1.13425
thorax -1.42934 3.31057 -3.89769
lowerneck -20.6322 2.03148 4.85391
upperneck 23.0395 2.45944 -3.77336
head 10.9716 1.13995 -1.79047
rclavicle 2.16675e-014 7.95139e-016
rhumerus -35.0952 24.5049 -88.0059
rradius 98.8797
rwrist -10.5771
rhand -14.6367 -22.5282
rfingers 7.12502
rthumb 11.5152 -52.1919
lclavicle 2.16675e-014 7.95139e-016
lhumerus -61.2321 -6.37891 76.4375
lradius 18.5774
lwrist -26.5781
lhand -2.33664 -20.4041
lfingers 7.12502
lthumb 23.3505 8.19959
rfemur 26.1331 8.18777 24.1183
rtibia 34.3224
rfoot -19.1685 4.80597
rtoes -16.474
lfemur -36.4937 12.5388 -4.95484
ltibia 33.6484
lfoot -0.20606 12.6629
ltoes 19.3137
381
root 37.4728 15.137 -0.252587 687.076 77.7019 690.471
lowerback 9.19698 4.58784 3.44464
upperback 2.76865 6.45248 -1.47926
thorax -1.70114 3.26797 -4.10445
lowerneck -20.8297 2.07846 4.83437
upperneck 23.0036 2.51244 -3.75611
head 10.9982 1.16065 -1.77202
rclavicle 3.1408e-014 3.57812e-014
rhumerus -36.4805 21.7016 -88.7394
rradius 96.7167
rwrist -10.4234
rhand -14.8801 -22.6418
rfingers 7.12502
rthumb 11.2804 -52.3185
lclavicle 3.1408e-014 3.57812e-014
lhumerus -59.3047 -6.03686 75.7158
lradius 18.7495
lwrist -28.0805
lhand -2.93442 -20.8238
lfingers 7.12502
lthumb 22.7769 7.8516
rfemur 25.6752 8.13923 23.4091
rtibia 36.662
rfoot -16.1218 4.73475
rtoes -13.6672
lfemur -35.8013 12.7558 -6.21515
ltibia 34.0747
lfoot 0.535844 12.3075
ltoes 21.3178
382
root 37.6804 15.1644 -0.28005 688.199 78.2408 691.879
lowerback 9.73085 4.57663 3.16681
upperback 2.83385 6.42613 -1.77091
thorax -1.92551 3.25464 -4.29959
lowerneck -20.959 2.01843 4.64631
upperneck 22.8562 2.44586 -3.65588
head 10.9606 1.12202 -1.71304
rclavicle 2.3059e-014 -1.43125e-014
rhumerus -37.3444 18.9232 -89.1928
rradius 93.9445
rwrist -10.1771
rhand -15.1824 -22.2379
rfingers 7.12502
rthumb 10.9888 -51.9303
lclavicle 2.3059e-014 -1.43125e-014
lhumerus -57.4947 -6.16223 75.7939
lradius 19.31
lwrist -28.1441
lhand -2.9473 -20.51
lfingers 7.12502
lthumb 22.7645 8.16694
rfemur 24.585 8.04438 22.701
rtibia 39.5132
rfoot -13.764 4.73833
rtoes -12.5223
lfemur -35.0968 12.8245 -7.21151
ltibia 34.3628
lfoot 1.25253 11.0705
ltoes 16.1484
383
root 37.8761 15.1935 -0.304956 689.373 78.1836 692.889
lowerback 9.80141 4.69608 3.10125
upperback 2.77865 6.57685 -1.90407
thorax -1.99865 3.32766 -4.42568
lowerneck -20.7326 1.95814 4.43322
upperneck 22.4725 2.42783 -3.66904
head 10.772 1.09211 -1.68257
rclavicle -7.7526e-015 4.45278e-014
rhumerus -37.9082 16.3636 -89.4876
rradius 90.7146
rwrist -9.99409
rhand -14.9724 -23.5579
rfingers 7.12502
rthumb 11.1913 -53.2394
lclavicle -7.7526e-015 4.45278e-014
lhumerus -55.7988 -6.50836 76.4529
lradius 20.049
lwrist -27.1056
lhand -5.12108 -20.7983
lfingers 7.12502
lthumb 20.6771 8.12024
rfemur 23.1015 8.36024 22.4955
rtibia 42.0382
rfoot -10.6402 4.4839
rtoes -8.49313
lfemur -34.7211 13.1511 -7.65778
ltibia 34.844
lfoot 1.22715 10.6642
ltoes 13.5621
384
root 38.0772 15.2557 -0.356099 688 79.2056 692.027
lowerback 10.4622 4.31321 3.21072
upperback 2.96087 6.10157 -2.05716
thorax -2.18805 3.09458 -4.65344
lowerneck -20.4578 1.93157 4.30994
upperneck 22.132 2.46119 -3.79252
head 10.5967 1.08187 -1.69951
rclavicle -6.71892e-014 3.65764e-014
rhumerus -38.2225 14.0829 -89.7205
rradius 87.122
rwrist -10.0429
rhand -16.4803 -23.8251
rfingers 7.12502
rthumb 9.73675 -53.58
lclavicle -6.71892e-014 3.65764e-014
lhumerus -54.3646 -7.10752 77.566
lradius 21.0821
lwrist -25.2202
lhand -6.98556 -20.6269
lfingers 7.12502
lthumb 18.8847 8.47632
rfemur 22.7972 7.73251 22.0857
rtibia 43.8083
rfoot -7.39426 3.46897
rtoes -3.27098
lfemur -33.6187 11.7306 -8.54069
ltibia 35.0953
lfoot 0.705114 10.4586
ltoes 12.8189
